<?xml version="1.0" standalone="no"?><!-- Generator: Gravit.io --><svg xmlns="http://www.w3.org/2000/svg" xmlns:xlink="http://www.w3.org/1999/xlink" style="isolation:isolate" viewBox="0 0 595.276 595.276" width="595.276" height="595.276"><defs><clipPath id="_clipPath_i3dx3qkGcaHZR8wkSzAkSvH2eMhk0Pmn"><rect width="595.276" height="595.276"/></clipPath></defs><g clip-path="url(#_clipPath_i3dx3qkGcaHZR8wkSzAkSvH2eMhk0Pmn)"><path d="M 101.693 0 L 493.583 0 C 549.709 0 595.276 45.567 595.276 101.693 L 595.276 493.583 C 595.276 549.709 549.709 595.276 493.583 595.276 L 101.693 595.276 C 45.567 595.276 0 549.709 0 493.583 L 0 101.693 C 0 45.567 45.567 0 101.693 0 Z" style="stroke:none;fill:#FFC107;stroke-miterlimit:10;"/><path d=" M 215.352 595.276 L 94.871 474.795 L 122.42 447.246 L 122.42 447.246 L 140.951 465.778 L 145.708 461.021 L 145.708 461.021 L 127.177 442.489 L 127.177 442.489 L 122.42 447.246 L 122.42 447.246 L 127.177 442.489 L 148.479 421.187 L 148.479 421.187 L 148.479 421.187 L 148.479 421.187 L 148.479 421.187 L 148.479 421.187 L 148.479 421.187 L 148.479 421.187 L 148.479 421.187 L 148.479 421.187 L 148.479 421.187 L 148.479 421.187 L 148.479 421.187 L 148.479 421.187 L 154.725 414.941 L 176.648 436.864 L 192.94 420.572 L 171.561 399.193 L 171.561 399.193 L 196.131 374.622 L 196.131 374.622 L 196.131 374.622 L 196.131 374.622 L 196.131 374.622 L 196.131 374.622 L 196.131 374.622 L 196.131 374.622 L 196.131 374.622 L 196.131 374.622 L 196.131 374.622 L 196.131 374.622 L 196.131 374.622 L 228.437 342.317 L 232.607 346.487 L 251.518 327.576 L 329.999 406.057 L 345.746 390.31 L 263.514 308.077 L 263.514 308.077 L 290.092 281.499 L 228.916 220.323 L 251.083 198.156 L 251.083 198.156 L 246.865 193.938 L 279.17 161.632 L 280.298 162.76 L 280.298 162.76 L 307.392 135.666 L 318.925 147.199 L 333.39 132.734 L 595.276 394.619 L 595.276 493.583 C 595.276 549.709 549.709 595.276 493.583 595.276 L 215.352 595.276 Z  M 595.276 352.014 L 399.925 156.663 L 399.925 156.663 L 432.231 124.358 L 437.836 129.963 L 437.836 129.963 L 450.143 117.657 L 450.772 118.285 L 462.708 106.349 L 595.276 238.916 L 595.276 352.014 Z " fill-rule="evenodd" fill="rgb(183,133,26)"/><g><circle vector-effect="non-scaling-stroke" cx="432.9561898543363" cy="134.12168726790327" r="40.73315187507791" fill="rgb(248,249,250)"/><path d=" M 260.242 222.897 C 256.413 226.726 251.24 228.885 245.822 228.885 C 240.405 228.885 235.232 226.726 231.403 222.897 C 227.615 219.109 225.456 213.895 225.456 208.519 C 225.456 203.101 227.615 197.928 231.403 194.099 Q 282.489 143.045 295.24 130.294 C 307.99 117.543 318.492 117.962 330.317 129.787 Q 342.143 141.613 394.661 194.099 C 398.449 197.928 400.608 203.101 400.608 208.519 C 400.608 213.895 398.449 219.109 394.661 222.897 C 390.832 226.726 385.659 228.885 380.242 228.885 C 374.824 228.885 369.651 226.726 365.822 222.897 L 313.032 170.107 L 260.242 222.897 Z " fill="rgb(248,249,250)"/><path d=" M 265.787 311.474 C 261.999 307.645 259.84 302.472 259.84 297.054 C 259.84 291.637 261.999 286.464 265.787 282.635 C 269.616 278.847 274.789 276.688 280.207 276.688 C 285.624 276.688 290.798 278.847 294.626 282.635 Q 352.145 340.182 372.496 360.532 C 392.846 380.882 386.879 401.042 363.049 406.464 Q 339.218 411.886 258.007 428.989 C 252.712 430.129 247.213 429.111 242.651 426.178 C 238.13 423.246 234.952 418.602 233.812 413.347 C 232.671 408.052 233.69 402.553 236.622 397.991 C 239.555 393.47 244.199 390.293 249.453 389.152 L 326.928 372.573 L 265.787 311.474 Z " fill="rgb(248,249,250)"/><path d=" M 129.657 482.553 C 125.828 486.341 120.655 488.5 115.238 488.5 C 109.82 488.5 104.647 486.341 100.818 482.553 C 97.03 478.724 94.871 473.551 94.871 468.134 C 94.871 462.716 97.03 457.543 100.818 453.714 L 239.311 315.221 C 239.092 315.13 268.114 343.388 268.15 344.06 L 129.657 482.553 Z " fill="rgb(248,249,250)"/><path d=" M 354.989 282.253 Q 354.989 292.441 354.989 300.304 C 354.989 315.818 364.57 323.75 383.663 323.75 Q 419.368 323.75 475.152 323.75 C 480.569 323.75 485.742 321.591 489.571 317.803 C 493.36 313.974 495.518 308.801 495.518 303.383 C 495.518 297.966 493.36 292.793 489.571 288.964 C 485.742 285.176 480.569 283.017 475.152 283.017 L 395.722 283.017 L 395.722 241.52 L 354.989 282.253 Z " fill="rgb(248,249,250)"/></g></g></svg>